<?xml version="1.0" encoding="utf-8"?>
<!-- Generator: Adobe Illustrator 17.0.0, SVG Export Plug-In . SVG Version: 6.00 Build 0)  -->
<!DOCTYPE svg PUBLIC "-//W3C//DTD SVG 1.1//EN" "http://www.w3.org/Graphics/SVG/1.1/DTD/svg11.dtd">
<svg version="1.1" id="Layer_1" xmlns="http://www.w3.org/2000/svg" xmlns:xlink="http://www.w3.org/1999/xlink" x="0px" y="0px"
	 width="1303.94px" height="1870.87px" viewBox="0 0 1303.94 1870.87" enable-background="new 0 0 1303.94 1870.87"
	 xml:space="preserve">
<g>
	<rect x="73.702" y="49.606" fill="none" stroke="#000000" stroke-miterlimit="10" width="1213.228" height="8.504"/>
	<line fill="none" stroke="#000000" stroke-miterlimit="10" x1="330.346" y1="415.276" x2="433.346" y2="415.276"/>
	<rect x="73.702" y="369.921" fill="none" stroke="#000000" stroke-miterlimit="10" width="1213.228" height="8.504"/>
	<rect x="73.702" y="347.244" fill="none" stroke="#000000" stroke-miterlimit="10" width="1213.228" height="8.504"/>
	<rect x="73.702" y="228.189" fill="none" stroke="#000000" stroke-miterlimit="10" width="1213.228" height="8.504"/>
	<rect x="73.702" y="324.567" fill="none" stroke="#000000" stroke-miterlimit="10" width="1213.228" height="8.504"/>
	<rect x="73.702" y="301.89" fill="none" stroke="#000000" stroke-miterlimit="10" width="1213.228" height="8.504"/>
	<rect x="73.702" y="279.213" fill="none" stroke="#000000" stroke-miterlimit="10" width="1213.228" height="8.504"/>
	<rect x="73.702" y="248.032" fill="none" stroke="#000000" stroke-miterlimit="10" width="1213.228" height="8.504"/>
	<line fill="none" stroke="#000000" stroke-miterlimit="10" x1="113.387" y1="12.756" x2="1301.104" y2="12.756"/>
	<line fill="none" stroke="#000000" stroke-miterlimit="10" x1="1301.104" y1="12.756" x2="1301.104" y2="66.614"/>
	<line fill="none" stroke="#000000" stroke-miterlimit="10" x1="1301.104" y1="66.614" x2="1247.245" y2="66.614"/>
	<line fill="none" stroke="#000000" stroke-miterlimit="10" x1="1247.245" y1="66.614" x2="1247.245" y2="120.472"/>
	<line fill="none" stroke="#000000" stroke-miterlimit="10" x1="1247.245" y1="120.472" x2="1301.104" y2="120.472"/>
	<line fill="none" stroke="#000000" stroke-miterlimit="10" x1="1301.104" y1="120.472" x2="1301.104" y2="174.331"/>
	<line fill="none" stroke="#000000" stroke-miterlimit="10" x1="1301.104" y1="174.331" x2="1247.245" y2="174.331"/>
	<line fill="none" stroke="#000000" stroke-miterlimit="10" x1="1247.245" y1="174.331" x2="1247.245" y2="228.189"/>
	<line fill="none" stroke="#000000" stroke-miterlimit="10" x1="1247.245" y1="228.189" x2="1301.104" y2="228.189"/>
	<line fill="none" stroke="#000000" stroke-miterlimit="10" x1="1301.104" y1="228.189" x2="1301.104" y2="283.465"/>
	<line fill="none" stroke="#000000" stroke-miterlimit="10" x1="1301.104" y1="283.465" x2="1247.245" y2="283.465"/>
	<line fill="none" stroke="#000000" stroke-miterlimit="10" x1="1247.245" y1="283.465" x2="1247.245" y2="361.417"/>
	<line fill="none" stroke="#000000" stroke-miterlimit="10" x1="1247.245" y1="361.417" x2="1301.104" y2="361.417"/>
	<line fill="none" stroke="#000000" stroke-miterlimit="10" x1="1301.104" y1="361.417" x2="1301.104" y2="415.276"/>
	<line fill="none" stroke="#000000" stroke-miterlimit="10" x1="1301.104" y1="415.276" x2="113.387" y2="415.276"/>
	<line fill="none" stroke="#000000" stroke-miterlimit="10" x1="113.387" y1="415.276" x2="113.387" y2="361.417"/>
	<line fill="none" stroke="#000000" stroke-miterlimit="10" x1="113.387" y1="361.417" x2="59.529" y2="361.417"/>
	<line fill="none" stroke="#000000" stroke-miterlimit="10" x1="59.529" y1="361.417" x2="59.529" y2="282.047"/>
	<line fill="none" stroke="#000000" stroke-miterlimit="10" x1="59.529" y1="282.047" x2="113.387" y2="282.047"/>
	<line fill="none" stroke="#000000" stroke-miterlimit="10" x1="113.387" y1="282.047" x2="113.387" y2="228.189"/>
	<line fill="none" stroke="#000000" stroke-miterlimit="10" x1="113.387" y1="228.189" x2="59.529" y2="228.189"/>
	<line fill="none" stroke="#000000" stroke-miterlimit="10" x1="59.529" y1="228.189" x2="59.529" y2="174.331"/>
	<line fill="none" stroke="#000000" stroke-miterlimit="10" x1="59.529" y1="174.331" x2="113.387" y2="174.331"/>
	<line fill="none" stroke="#000000" stroke-miterlimit="10" x1="113.387" y1="174.331" x2="113.387" y2="120.472"/>
	<line fill="none" stroke="#000000" stroke-miterlimit="10" x1="113.387" y1="120.472" x2="59.529" y2="120.472"/>
	<line fill="none" stroke="#000000" stroke-miterlimit="10" x1="59.529" y1="120.472" x2="59.529" y2="66.614"/>
	<line fill="none" stroke="#000000" stroke-miterlimit="10" x1="59.529" y1="66.614" x2="113.387" y2="66.614"/>
	<line fill="none" stroke="#000000" stroke-miterlimit="10" x1="113.387" y1="66.614" x2="113.387" y2="12.756"/>
	<line fill="none" stroke="#000000" stroke-miterlimit="10" x1="113.387" y1="12.756" x2="1301.104" y2="12.756"/>
	<line fill="none" stroke="#000000" stroke-miterlimit="10" x1="1301.104" y1="12.756" x2="1301.104" y2="66.614"/>
	<line fill="none" stroke="#000000" stroke-miterlimit="10" x1="1301.104" y1="66.614" x2="1247.245" y2="66.614"/>
</g>
<g>
	<rect x="73.702" y="476.85" fill="none" stroke="#000000" stroke-miterlimit="10" width="1213.228" height="8.504"/>
	<line fill="none" stroke="#000000" stroke-miterlimit="10" x1="330.346" y1="842.52" x2="433.346" y2="842.52"/>
	<rect x="73.702" y="797.165" fill="none" stroke="#000000" stroke-miterlimit="10" width="1213.228" height="8.504"/>
	<rect x="73.702" y="774.488" fill="none" stroke="#000000" stroke-miterlimit="10" width="1213.228" height="8.504"/>
	<rect x="73.702" y="655.433" fill="none" stroke="#000000" stroke-miterlimit="10" width="1213.228" height="8.504"/>
	<rect x="73.702" y="751.811" fill="none" stroke="#000000" stroke-miterlimit="10" width="1213.228" height="8.504"/>
	<rect x="73.702" y="729.134" fill="none" stroke="#000000" stroke-miterlimit="10" width="1213.228" height="8.504"/>
	<rect x="73.702" y="706.457" fill="none" stroke="#000000" stroke-miterlimit="10" width="1213.228" height="8.504"/>
	<rect x="73.702" y="675.276" fill="none" stroke="#000000" stroke-miterlimit="10" width="1213.228" height="8.504"/>
	<line fill="none" stroke="#000000" stroke-miterlimit="10" x1="113.387" y1="440" x2="1301.104" y2="440"/>
	<line fill="none" stroke="#000000" stroke-miterlimit="10" x1="1301.104" y1="440" x2="1301.104" y2="493.858"/>
	<line fill="none" stroke="#000000" stroke-miterlimit="10" x1="1301.104" y1="493.858" x2="1247.245" y2="493.858"/>
	<line fill="none" stroke="#000000" stroke-miterlimit="10" x1="1247.245" y1="493.858" x2="1247.245" y2="547.717"/>
	<line fill="none" stroke="#000000" stroke-miterlimit="10" x1="1247.245" y1="547.717" x2="1301.104" y2="547.717"/>
	<line fill="none" stroke="#000000" stroke-miterlimit="10" x1="1301.104" y1="547.717" x2="1301.104" y2="601.575"/>
	<line fill="none" stroke="#000000" stroke-miterlimit="10" x1="1301.104" y1="601.575" x2="1247.245" y2="601.575"/>
	<line fill="none" stroke="#000000" stroke-miterlimit="10" x1="1247.245" y1="601.575" x2="1247.245" y2="655.433"/>
	<line fill="none" stroke="#000000" stroke-miterlimit="10" x1="1247.245" y1="655.433" x2="1301.104" y2="655.433"/>
	<line fill="none" stroke="#000000" stroke-miterlimit="10" x1="1301.104" y1="655.433" x2="1301.104" y2="710.709"/>
	<line fill="none" stroke="#000000" stroke-miterlimit="10" x1="1301.104" y1="710.709" x2="1247.245" y2="710.709"/>
	<line fill="none" stroke="#000000" stroke-miterlimit="10" x1="1247.245" y1="710.709" x2="1247.245" y2="788.661"/>
	<line fill="none" stroke="#000000" stroke-miterlimit="10" x1="1247.245" y1="788.661" x2="1301.104" y2="788.661"/>
	<line fill="none" stroke="#000000" stroke-miterlimit="10" x1="1301.104" y1="788.661" x2="1301.104" y2="842.52"/>
	<line fill="none" stroke="#000000" stroke-miterlimit="10" x1="1301.104" y1="842.52" x2="113.387" y2="842.52"/>
	<line fill="none" stroke="#000000" stroke-miterlimit="10" x1="113.387" y1="842.52" x2="113.387" y2="788.661"/>
	<line fill="none" stroke="#000000" stroke-miterlimit="10" x1="113.387" y1="788.661" x2="59.529" y2="788.661"/>
	<line fill="none" stroke="#000000" stroke-miterlimit="10" x1="59.529" y1="788.661" x2="59.529" y2="709.291"/>
	<line fill="none" stroke="#000000" stroke-miterlimit="10" x1="59.529" y1="709.291" x2="113.387" y2="709.291"/>
	<line fill="none" stroke="#000000" stroke-miterlimit="10" x1="113.387" y1="709.291" x2="113.387" y2="655.433"/>
	<line fill="none" stroke="#000000" stroke-miterlimit="10" x1="113.387" y1="655.433" x2="59.529" y2="655.433"/>
	<line fill="none" stroke="#000000" stroke-miterlimit="10" x1="59.529" y1="655.433" x2="59.529" y2="601.575"/>
	<line fill="none" stroke="#000000" stroke-miterlimit="10" x1="59.529" y1="601.575" x2="113.387" y2="601.575"/>
	<line fill="none" stroke="#000000" stroke-miterlimit="10" x1="113.387" y1="601.575" x2="113.387" y2="547.717"/>
	<line fill="none" stroke="#000000" stroke-miterlimit="10" x1="113.387" y1="547.717" x2="59.529" y2="547.717"/>
	<line fill="none" stroke="#000000" stroke-miterlimit="10" x1="59.529" y1="547.717" x2="59.529" y2="493.858"/>
	<line fill="none" stroke="#000000" stroke-miterlimit="10" x1="59.529" y1="493.858" x2="113.387" y2="493.858"/>
	<line fill="none" stroke="#000000" stroke-miterlimit="10" x1="113.387" y1="493.858" x2="113.387" y2="440"/>
	<line fill="none" stroke="#000000" stroke-miterlimit="10" x1="113.387" y1="440" x2="1301.104" y2="440"/>
	<line fill="none" stroke="#000000" stroke-miterlimit="10" x1="1301.104" y1="440" x2="1301.104" y2="493.858"/>
	<line fill="none" stroke="#000000" stroke-miterlimit="10" x1="1301.104" y1="493.858" x2="1247.245" y2="493.858"/>
</g>
<g>
	<rect x="73.702" y="1328.084" fill="none" stroke="#000000" stroke-miterlimit="10" width="1213.228" height="8.504"/>
	<line fill="none" stroke="#000000" stroke-miterlimit="10" x1="330.346" y1="1693.753" x2="433.346" y2="1693.753"/>
	<rect x="73.702" y="1648.399" fill="none" stroke="#000000" stroke-miterlimit="10" width="1213.228" height="8.504"/>
	<rect x="73.702" y="1625.722" fill="none" stroke="#000000" stroke-miterlimit="10" width="1213.228" height="8.504"/>
	<rect x="73.702" y="1506.667" fill="none" stroke="#000000" stroke-miterlimit="10" width="1213.228" height="8.504"/>
	<rect x="73.702" y="1603.045" fill="none" stroke="#000000" stroke-miterlimit="10" width="1213.228" height="8.504"/>
	<rect x="73.702" y="1580.367" fill="none" stroke="#000000" stroke-miterlimit="10" width="1213.228" height="8.504"/>
	<rect x="73.702" y="1557.69" fill="none" stroke="#000000" stroke-miterlimit="10" width="1213.228" height="8.504"/>
	<rect x="73.702" y="1526.509" fill="none" stroke="#000000" stroke-miterlimit="10" width="1213.228" height="8.504"/>
	<line fill="none" stroke="#000000" stroke-miterlimit="10" x1="113.387" y1="1291.234" x2="1301.104" y2="1291.234"/>
	<line fill="none" stroke="#000000" stroke-miterlimit="10" x1="1301.104" y1="1291.234" x2="1301.104" y2="1345.092"/>
	<line fill="none" stroke="#000000" stroke-miterlimit="10" x1="1301.104" y1="1345.092" x2="1247.246" y2="1345.092"/>
	<line fill="none" stroke="#000000" stroke-miterlimit="10" x1="1247.246" y1="1345.092" x2="1247.246" y2="1398.95"/>
	<line fill="none" stroke="#000000" stroke-miterlimit="10" x1="1247.246" y1="1398.95" x2="1301.104" y2="1398.95"/>
	<line fill="none" stroke="#000000" stroke-miterlimit="10" x1="1301.104" y1="1398.95" x2="1301.104" y2="1452.808"/>
	<line fill="none" stroke="#000000" stroke-miterlimit="10" x1="1301.104" y1="1452.808" x2="1247.245" y2="1452.808"/>
	<line fill="none" stroke="#000000" stroke-miterlimit="10" x1="1247.245" y1="1452.808" x2="1247.245" y2="1506.667"/>
	<line fill="none" stroke="#000000" stroke-miterlimit="10" x1="1247.245" y1="1506.667" x2="1301.104" y2="1506.667"/>
	<line fill="none" stroke="#000000" stroke-miterlimit="10" x1="1301.104" y1="1506.667" x2="1301.104" y2="1561.942"/>
	<line fill="none" stroke="#000000" stroke-miterlimit="10" x1="1301.104" y1="1561.942" x2="1247.245" y2="1561.942"/>
	<line fill="none" stroke="#000000" stroke-miterlimit="10" x1="1247.245" y1="1561.942" x2="1247.245" y2="1639.895"/>
	<line fill="none" stroke="#000000" stroke-miterlimit="10" x1="1247.245" y1="1639.895" x2="1301.104" y2="1639.895"/>
	<line fill="none" stroke="#000000" stroke-miterlimit="10" x1="1301.104" y1="1639.895" x2="1301.104" y2="1693.753"/>
	<line fill="none" stroke="#000000" stroke-miterlimit="10" x1="1301.104" y1="1693.753" x2="113.387" y2="1693.753"/>
	<line fill="none" stroke="#000000" stroke-miterlimit="10" x1="113.387" y1="1693.753" x2="113.387" y2="1639.895"/>
	<line fill="none" stroke="#000000" stroke-miterlimit="10" x1="113.387" y1="1639.895" x2="59.529" y2="1639.895"/>
	<line fill="none" stroke="#000000" stroke-miterlimit="10" x1="59.529" y1="1639.895" x2="59.529" y2="1560.525"/>
	<line fill="none" stroke="#000000" stroke-miterlimit="10" x1="59.529" y1="1560.525" x2="113.387" y2="1560.525"/>
	<line fill="none" stroke="#000000" stroke-miterlimit="10" x1="113.387" y1="1560.525" x2="113.387" y2="1506.667"/>
	<line fill="none" stroke="#000000" stroke-miterlimit="10" x1="113.387" y1="1506.667" x2="59.529" y2="1506.667"/>
	<line fill="none" stroke="#000000" stroke-miterlimit="10" x1="59.529" y1="1506.667" x2="59.529" y2="1452.808"/>
	<line fill="none" stroke="#000000" stroke-miterlimit="10" x1="59.529" y1="1452.808" x2="113.387" y2="1452.808"/>
	<line fill="none" stroke="#000000" stroke-miterlimit="10" x1="113.387" y1="1452.808" x2="113.387" y2="1398.95"/>
	<line fill="none" stroke="#000000" stroke-miterlimit="10" x1="113.387" y1="1398.95" x2="59.529" y2="1398.95"/>
	<line fill="none" stroke="#000000" stroke-miterlimit="10" x1="59.529" y1="1398.95" x2="59.529" y2="1345.092"/>
	<line fill="none" stroke="#000000" stroke-miterlimit="10" x1="59.529" y1="1345.092" x2="113.387" y2="1345.092"/>
	<line fill="none" stroke="#000000" stroke-miterlimit="10" x1="113.387" y1="1345.092" x2="113.387" y2="1291.234"/>
	<line fill="none" stroke="#000000" stroke-miterlimit="10" x1="113.387" y1="1291.234" x2="1301.104" y2="1291.234"/>
	<line fill="none" stroke="#000000" stroke-miterlimit="10" x1="1301.104" y1="1291.234" x2="1301.104" y2="1345.092"/>
	<line fill="none" stroke="#000000" stroke-miterlimit="10" x1="1301.104" y1="1345.092" x2="1247.246" y2="1345.092"/>
</g>
<g>
	<rect x="73.702" y="908.024" fill="none" stroke="#000000" stroke-miterlimit="10" width="1213.228" height="8.504"/>
	<line fill="none" stroke="#000000" stroke-miterlimit="10" x1="330.346" y1="1273.693" x2="433.346" y2="1273.693"/>
	<rect x="73.702" y="1228.339" fill="none" stroke="#000000" stroke-miterlimit="10" width="1213.228" height="8.504"/>
	<rect x="73.702" y="1205.661" fill="none" stroke="#000000" stroke-miterlimit="10" width="1213.228" height="8.504"/>
	<rect x="73.702" y="1086.606" fill="none" stroke="#000000" stroke-miterlimit="10" width="1213.228" height="8.504"/>
	<rect x="73.702" y="1182.984" fill="none" stroke="#000000" stroke-miterlimit="10" width="1213.228" height="8.504"/>
	<rect x="73.702" y="1160.307" fill="none" stroke="#000000" stroke-miterlimit="10" width="1213.228" height="8.504"/>
	<rect x="73.702" y="1137.63" fill="none" stroke="#000000" stroke-miterlimit="10" width="1213.228" height="8.504"/>
	<rect x="73.702" y="1106.449" fill="none" stroke="#000000" stroke-miterlimit="10" width="1213.228" height="8.504"/>
	<line fill="none" stroke="#000000" stroke-miterlimit="10" x1="113.387" y1="871.173" x2="1301.104" y2="871.173"/>
	<line fill="none" stroke="#000000" stroke-miterlimit="10" x1="1301.104" y1="871.173" x2="1301.104" y2="925.031"/>
	<line fill="none" stroke="#000000" stroke-miterlimit="10" x1="1301.104" y1="925.031" x2="1247.245" y2="925.031"/>
	<line fill="none" stroke="#000000" stroke-miterlimit="10" x1="1247.245" y1="925.031" x2="1247.245" y2="978.89"/>
	<line fill="none" stroke="#000000" stroke-miterlimit="10" x1="1247.245" y1="978.89" x2="1301.104" y2="978.89"/>
	<line fill="none" stroke="#000000" stroke-miterlimit="10" x1="1301.104" y1="978.89" x2="1301.104" y2="1032.748"/>
	<line fill="none" stroke="#000000" stroke-miterlimit="10" x1="1301.104" y1="1032.748" x2="1247.245" y2="1032.748"/>
	<line fill="none" stroke="#000000" stroke-miterlimit="10" x1="1247.245" y1="1032.748" x2="1247.245" y2="1086.606"/>
	<line fill="none" stroke="#000000" stroke-miterlimit="10" x1="1247.245" y1="1086.606" x2="1301.104" y2="1086.606"/>
	<line fill="none" stroke="#000000" stroke-miterlimit="10" x1="1301.104" y1="1086.606" x2="1301.104" y2="1141.882"/>
	<line fill="none" stroke="#000000" stroke-miterlimit="10" x1="1301.104" y1="1141.882" x2="1247.245" y2="1141.882"/>
	<line fill="none" stroke="#000000" stroke-miterlimit="10" x1="1247.245" y1="1141.882" x2="1247.245" y2="1219.835"/>
	<line fill="none" stroke="#000000" stroke-miterlimit="10" x1="1247.245" y1="1219.835" x2="1301.104" y2="1219.835"/>
	<line fill="none" stroke="#000000" stroke-miterlimit="10" x1="1301.104" y1="1219.835" x2="1301.104" y2="1273.693"/>
	<line fill="none" stroke="#000000" stroke-miterlimit="10" x1="1301.104" y1="1273.693" x2="113.387" y2="1273.693"/>
	<line fill="none" stroke="#000000" stroke-miterlimit="10" x1="113.387" y1="1273.693" x2="113.387" y2="1219.835"/>
	<line fill="none" stroke="#000000" stroke-miterlimit="10" x1="113.387" y1="1219.835" x2="59.529" y2="1219.835"/>
	<line fill="none" stroke="#000000" stroke-miterlimit="10" x1="59.529" y1="1219.835" x2="59.529" y2="1140.465"/>
	<line fill="none" stroke="#000000" stroke-miterlimit="10" x1="59.529" y1="1140.465" x2="113.387" y2="1140.465"/>
	<line fill="none" stroke="#000000" stroke-miterlimit="10" x1="113.387" y1="1140.465" x2="113.387" y2="1086.606"/>
	<line fill="none" stroke="#000000" stroke-miterlimit="10" x1="113.387" y1="1086.606" x2="59.529" y2="1086.606"/>
	<line fill="none" stroke="#000000" stroke-miterlimit="10" x1="59.529" y1="1086.606" x2="59.529" y2="1032.748"/>
	<line fill="none" stroke="#000000" stroke-miterlimit="10" x1="59.529" y1="1032.748" x2="113.387" y2="1032.748"/>
	<line fill="none" stroke="#000000" stroke-miterlimit="10" x1="113.387" y1="1032.748" x2="113.387" y2="978.89"/>
	<line fill="none" stroke="#000000" stroke-miterlimit="10" x1="113.387" y1="978.89" x2="59.529" y2="978.89"/>
	<line fill="none" stroke="#000000" stroke-miterlimit="10" x1="59.529" y1="978.89" x2="59.529" y2="925.031"/>
	<line fill="none" stroke="#000000" stroke-miterlimit="10" x1="59.529" y1="925.031" x2="113.387" y2="925.031"/>
	<line fill="none" stroke="#000000" stroke-miterlimit="10" x1="113.387" y1="925.031" x2="113.387" y2="871.173"/>
	<line fill="none" stroke="#000000" stroke-miterlimit="10" x1="113.387" y1="871.173" x2="1301.104" y2="871.173"/>
	<line fill="none" stroke="#000000" stroke-miterlimit="10" x1="1301.104" y1="871.173" x2="1301.104" y2="925.031"/>
	<line fill="none" stroke="#000000" stroke-miterlimit="10" x1="1301.104" y1="925.031" x2="1247.245" y2="925.031"/>
</g>
</svg>
